<?xml version="1.0" encoding="utf-8"?>
<!-- Generator: Adobe Illustrator 24.1.1, SVG Export Plug-In . SVG Version: 6.00 Build 0)  -->
<svg version="1.1" id="Layer_1" xmlns="http://www.w3.org/2000/svg" xmlns:xlink="http://www.w3.org/1999/xlink" x="0px" y="0px"
	 viewBox="0 0 512 512" style="enable-background:new 0 0 512 512;" xml:space="preserve">
<g>
	<path d="M256,0C114.6,0,0,114.6,0,256s114.6,256,256,256s256-114.6,256-256S397.4,0,256,0z M148.5,163.8c16.1,0,28.6,11.7,30,25.6
		c1.5,12.5-3.7,23.4-17.5,30c-7.3,3.7-10.3,3.7-11.8,1.5c-0.8-1.5,0-2.9,1.5-4.4c13.2-10.9,13.2-19.7,11.7-32.1
		c-0.8-8.1-6.6-13.2-12.4-13.2c-25.7,0-62.2,57-57.1,98.8c2.3,16.1,11.8,35.1,32.2,35.1c6.6,0,13.9-2.2,20.5-5.1
		c10.7-5.7,17.1-10,23.4-17.1c-1.6-18.9,15-43.7,39.5-43.7c11,0,19.8,4.4,20.5,12.5c1.4,10.9-8.1,12.4-11,12.4
		c-2.9,0-8.1-0.8-8.1-3.7c-0.7-2.9,6.6-1.5,5.9-8.1c-0.8-4.4-5.2-5.8-9.5-5.8c-15.4,0-24.2,21.2-22,34.3c0.8,5.9,3.6,11.8,9.6,11.8
		c4.3,0,10.9-6.6,13.1-16.1c1.5-6.6,7.3-11,12.5-11c2.2,0,3.6,0.8,4.3,3.7v2.9c-0.7,2.9-2.9,11.8-2.2,13.9c0,1.5,0.8,3.7,3.6,3.7
		c1.9,0,9.3-3.8,16.6-9.8c2.4-12.6,5.3-27.7,5.3-28.9c0.8-5.2,2.9-10.3,13.2-10.3c2.2,0,3.7,0.8,4.4,3.7v2.9l-2.9,13.2
		c9.5-12.4,23.4-21.2,32.2-21.2c3.7,0,6.6,2.2,6.6,5.8c0,2.2,0,5.8-1.5,9.5c-2.9,8-6.6,20.5-8.8,31.4c0,2.9,0.8,5.8,4.4,5.8
		s14.6-4.3,23.3-16.1l0.2-0.1l-0.2-4.2c0-8.8,0.8-16.1,2.3-21.2c1.5-5.8,8.8-10.9,13.2-10.9c2.2,0,4.4,1.4,4.4,3.6l-0.8,2.9
		c-2.9,9.6-5.2,18.3-5.2,27.1c0,5.2,0.8,12.4,2.3,16.8l1.4,1.5c1.5,0,11.8-9.5,19-22c-6.6-4.3-10.3-11.7-10.3-20.4
		c0-15.4,9.6-23.4,18.4-23.4c7.3,0,13.2,5.1,13.2,15.3c0,6.6-2.2,13.9-5.8,20.5h2.2c4.7,0.2,9.3-1.8,12.4-5.1l2.9-2.5
		c7.2-9.1,17.7-15.8,30.1-15.8c10.2,0,19.7,4.4,20.4,12.4c1.5,11-8.1,13.2-11,13.2c-2.9,0-8.1-0.8-8.1-3.7s6.6-1.5,5.9-8
		c-0.8-4.4-5.2-5.9-9.6-5.9c-14.6,0-24.1,19-21.9,34.4c0.8,5.8,3.7,12.4,9.5,12.4c4.4,0,11-6.6,13.9-16.1c1.4-5.8,7.3-11,12.4-11
		c2.2,0,3.7,0.8,4.4,3.7c0,1.5,0,4.4-2.9,13.9c-3.7,6.6-3.7,10.2-2.9,13.2c0.7,5.8,3.6,10.2,6.6,12.4l1.4,2.2c0,1.5-0.8,3-2.9,3
		l-2.2-0.8c-11-4.4-15.4-11.8-16.8-19.1c-4.4,5.2-9.5,8.1-15.4,8.1c-9.5,0-18.9-8.8-20.4-19.8c-0.4-4.7,0.1-9.4,1.6-13.8
		c-4.3,2.8-9,4.3-13.3,4.3h-3.6c-9.6,13.9-19.8,23.4-27.1,27.8c-2.5,1.3-5.3,2.1-8.1,2.2c-1.4,0-3.6-0.8-4.3-2.2
		c-2.1-3.3-3.3-8.3-4.2-14.2c-10.3,11.2-24.4,17.2-31,17.2c-7.3,0-11.7-4.4-12.4-11.7v-8c2.2-16.1,8.1-25.7,8.1-28.6l-1.5-1.5
		c-5.1,0-21.9,17.6-24.8,29.3l-2.2,9.5c-1.4,6.6-8,11-12.4,11c-2.2,0-3.7-0.8-4.3-3.6v-2.9l0.9-5c-9.3,6.6-18.5,10.8-22.9,10.8
		c-6.6,0-10.2-3.7-10.9-8.8c-4.4,5.9-9.5,8.8-16.1,8.8c-7.6,0-14.9-5.2-18.4-12.7c-5.3,5.9-11.2,11.8-18.2,16.3
		c-10.2,6.6-21.9,11.7-35.8,11.7c-12.4,0-23.4-6.6-29.3-12.4c-8.8-8.1-13.9-20.5-14.7-32.2c-4.3-35.8,17.6-81.9,51.2-102.4
		C132.4,166.8,140.5,163.9,148.5,163.8L148.5,163.8z M356.9,234.1c-2.2,0-3.6,3.7-3.6,7.2c0,5.9,2.9,12.5,6.6,16.2
		c1.5-4,2.2-8.2,2.3-12.5C362.1,237.8,359.2,234.1,356.9,234.1L356.9,234.1z"/>
</g>
</svg>
