<?xml version="1.0" encoding="utf-8"?>
<!-- Svg Vector Icons : http://www.onlinewebfonts.com/icon -->
<!DOCTYPE svg PUBLIC "-//W3C//DTD SVG 1.1//EN" "http://www.w3.org/Graphics/SVG/1.1/DTD/svg11.dtd">
<svg version="1.1" xmlns="http://www.w3.org/2000/svg" xmlns:xlink="http://www.w3.org/1999/xlink" x="0px" y="0px" viewBox="0 0 1000 1000" enable-background="new 0 0 1000 1000" xml:space="preserve">
<metadata> Svg Vector Icons : http://www.onlinewebfonts.com/icon </metadata>
<g><g><g><path d="M314.2,375.9c35,90.6,101,150.2,185.8,150.2c81,0,151.2-57.3,185.8-150.2c36.4-3.4,55.4-38.5,62.5-79.9c8.5-49.5-9.3-73.6-40.6-79C697,100.7,663.6,10,500,10c-164.6,0-197.1,90.7-207.7,206.9c-31.3,5.4-49.1,29.6-40.6,79C258.8,337.9,278.5,372.8,314.2,375.9z M404.1,281.6c18.9-6.2,36-14.5,51.2-23.7c9.4,4.4,16.1,13.9,16.1,25c0,15.2-12.4,27.6-27.6,27.6h-12.2c-15.2,0-27.6-12.4-27.6-27.6C403.9,282.5,404,282.1,404.1,281.6z M384.4,287.1c2.2,24.3,22.4,43.4,47.2,43.4h12.2c26.3,0,47.6-21.4,47.6-47.6c0-2.6-0.4-5.1-0.8-7.6h18.8c-0.4,2.5-0.8,5-0.8,7.6c0,26.3,21.4,47.6,47.6,47.6h12.2c26.3,0,47.6-21.4,47.6-47.6s-21.4-47.6-47.6-47.6h-12.2c-16,0-30,8-38.7,20h-35.1c-2.5-3.5-5.6-6.6-8.9-9.4c36.3-25.7,59-53.8,64.8-61.4c10.3,20.6,39.7,60.9,116.3,79c-7.2,119.3-70,203.6-154.7,203.6c-79.7,0-135.5-73.4-151.3-174.6C361.1,291.8,373,289.8,384.4,287.1z M528.6,282.9c0-15.2,12.4-27.6,27.6-27.6h12.2c15.2,0,27.6,12.4,27.6,27.6c0,15.2-12.4,27.6-27.6,27.6h-12.2C541,310.6,528.6,298.2,528.6,282.9z"/><path d="M845.3,846.2c-11.4-220.6-94.2-331-174-379.2c0,0-0.1-0.1-0.2-0.1L546.1,694.1L534,651c11.3-9.8,18.6-24.1,18.6-40.2c0-29.5-23.9-53.4-53.4-53.4c-29.5,0-51.9,23.9-51.9,53.4c0,16.1,7.3,30.4,18.6,40.2l-12.7,43.1L328.7,467c-80.3,47.6-162.6,157.1-174,379.2c-2,39.2,24.3,72.9,58.9,75.2c1.2,0.1,67.6,3.5,67.6,3.5c41.3,46.9,126.3,65.2,220.3,65.2c99.7,0,177.9-21.9,217.3-65.2c0,0,66.4-3.4,67.6-3.5C820.9,919.1,847.3,885.4,845.3,846.2z M695.5,776.3h-94.3v-41.3h94.3V776.3z"/></g></g><g></g><g></g><g></g><g></g><g></g><g></g><g></g><g></g><g></g><g></g><g></g><g></g><g></g><g></g><g></g></g>
</svg>